<svg width="20" height="20" viewBox="0 0 20 20" fill="none" xmlns="http://www.w3.org/2000/svg">
<g id="Component 20">
<path id="Vector" d="M10.0003 5.83366C9.54199 5.83366 9.16699 6.20866 9.16699 6.66699V9.16699H6.66699C6.20866 9.16699 5.83366 9.54199 5.83366 10.0003C5.83366 10.4587 6.20866 10.8337 6.66699 10.8337H9.16699V13.3337C9.16699 13.792 9.54199 14.167 10.0003 14.167C10.4587 14.167 10.8337 13.792 10.8337 13.3337V10.8337H13.3337C13.792 10.8337 14.167 10.4587 14.167 10.0003C14.167 9.54199 13.792 9.16699 13.3337 9.16699H10.8337V6.66699C10.8337 6.20866 10.4587 5.83366 10.0003 5.83366ZM10.0003 1.66699C5.40033 1.66699 1.66699 5.40033 1.66699 10.0003C1.66699 14.6003 5.40033 18.3337 10.0003 18.3337C14.6003 18.3337 18.3337 14.6003 18.3337 10.0003C18.3337 5.40033 14.6003 1.66699 10.0003 1.66699ZM10.0003 16.667C6.32533 16.667 3.33366 13.6753 3.33366 10.0003C3.33366 6.32533 6.32533 3.33366 10.0003 3.33366C13.6753 3.33366 16.667 6.32533 16.667 10.0003C16.667 13.6753 13.6753 16.667 10.0003 16.667Z" fill="#8A8D9F"/>
</g>
</svg>
