<svg width="20" height="20" viewBox="0 0 20 20" fill="none" xmlns="http://www.w3.org/2000/svg">
<g id="material-symbols:keyboard-arrow-down-rounded">
<path id="Vector" d="M10.0003 12.4788C9.88921 12.4788 9.78171 12.458 9.67782 12.4163C9.57338 12.3747 9.48644 12.3191 9.41699 12.2497L5.58366 8.41634C5.43088 8.26356 5.35449 8.06912 5.35449 7.83301C5.35449 7.5969 5.43088 7.40245 5.58366 7.24967C5.73644 7.0969 5.93088 7.02051 6.16699 7.02051C6.4031 7.02051 6.59755 7.0969 6.75033 7.24967L10.0003 10.4997L13.2503 7.24967C13.4031 7.0969 13.5975 7.02051 13.8337 7.02051C14.0698 7.02051 14.2642 7.0969 14.417 7.24967C14.5698 7.40245 14.6462 7.5969 14.6462 7.83301C14.6462 8.06912 14.5698 8.26356 14.417 8.41634L10.5837 12.2497C10.5003 12.333 10.41 12.3919 10.3128 12.4263C10.2156 12.4613 10.1114 12.4788 10.0003 12.4788Z" fill="#999A9B"/>
</g>
</svg>
