<svg width="20" height="20" viewBox="0 0 20 20" fill="none" xmlns="http://www.w3.org/2000/svg">
<g id="tabler:photo-plus">
<g id="Group">
<path id="Vector" d="M12.5 6.66667H12.5083M10.4167 17.5H5C4.33696 17.5 3.70107 17.2366 3.23223 16.7678C2.76339 16.2989 2.5 15.663 2.5 15V5C2.5 4.33696 2.76339 3.70107 3.23223 3.23223C3.70107 2.76339 4.33696 2.5 5 2.5H15C15.663 2.5 16.2989 2.76339 16.7678 3.23223C17.2366 3.70107 17.5 4.33696 17.5 5V10.4167" stroke="#999A9B" stroke-width="1.5" stroke-linecap="round" stroke-linejoin="round"/>
<path id="Vector_2" d="M2.5 13.3332L6.66667 9.16652C7.44 8.42236 8.39333 8.42236 9.16667 9.16652L12.5 12.4999" stroke="#999A9B" stroke-width="1.5" stroke-linecap="round" stroke-linejoin="round"/>
<path id="Vector_3" d="M11.667 11.6664L12.5003 10.8331C13.0587 10.2964 13.7087 10.1464 14.3187 10.3831M13.3337 15.8331H18.3337M15.8337 13.3331V18.3331" stroke="#999A9B" stroke-width="1.5" stroke-linecap="round" stroke-linejoin="round"/>
</g>
</g>
</svg>
