<svg width="24" height="24" viewBox="0 0 24 24" fill="none" xmlns="http://www.w3.org/2000/svg">
<g id="emojione-monotone:game-die" clip-path="url(#clip0_261_6021)">
<path id="Vector" d="M16.2372 7.25877C15.902 7.06227 15.5746 6.96289 15.3159 6.96289C15.0586 6.96289 14.8704 7.06227 14.8134 7.25877C14.6971 7.65214 15.1494 8.28964 15.8206 8.68302C16.1566 8.88027 16.4836 8.97852 16.7416 8.97852C16.9989 8.97852 17.1871 8.88027 17.2456 8.68302C17.3607 8.28964 16.9092 7.65214 16.2372 7.25877ZM10.9235 18.0546C10.6816 17.968 10.3407 17.9508 9.9575 18.0231C9.1925 18.1698 8.5535 18.6198 8.52987 19.0289C8.51787 19.2333 8.66262 19.3896 8.90562 19.4755C9.14825 19.5621 9.4895 19.5786 9.87162 19.5059C10.637 19.3604 11.2764 18.9108 11.3 18.5005C11.312 18.2961 11.1672 18.1401 10.9235 18.0546ZM14.6255 17.2218C14.3832 17.1359 14.0412 17.1179 13.6595 17.191C12.8949 17.3369 12.2562 17.7858 12.2326 18.196C12.2214 18.4008 12.3657 18.5564 12.6084 18.6426C12.851 18.7289 13.1926 18.7458 13.5744 18.6738C14.3405 18.5275 14.9776 18.0783 15.002 17.6684C15.0125 17.4636 14.8685 17.3084 14.6255 17.2218ZM18.1745 16.4965C17.9326 16.4106 17.5902 16.3934 17.2077 16.4661C16.4439 16.612 15.8045 17.0613 15.7816 17.4715C15.7704 17.6759 15.9144 17.8319 16.1574 17.9181C16.3996 18.0044 16.7416 18.0213 17.1241 17.9485C17.8895 17.8026 18.5274 17.3534 18.551 16.9439C18.5622 16.7388 18.4175 16.5831 18.1745 16.4965ZM8.01725 9.85564C7.81475 10.0146 7.61787 10.2944 7.47387 10.6566C7.18812 11.3811 7.22637 12.1604 7.559 12.3993C7.72625 12.5185 7.9355 12.4806 8.138 12.3216C8.34162 12.1626 8.5385 11.8829 8.68175 11.521C8.9675 10.7969 8.92962 10.0165 8.59662 9.77764C8.42975 9.65839 8.22012 9.69627 8.01725 9.85564ZM3.89225 8.59977C3.68862 8.75877 3.49175 9.03777 3.3485 9.40002C3.062 10.1241 3.09987 10.9045 3.43437 11.1426C3.60012 11.2623 3.80937 11.2236 4.013 11.0646C4.2155 10.9056 4.41237 10.6263 4.55562 10.264C4.84212 9.54027 4.80387 8.75989 4.4705 8.52064C4.304 8.40177 4.09475 8.44002 3.89225 8.59977Z" fill="white"/>
<path id="Vector_2" d="M23.1345 13.3959L20.6764 5.98294C20.3051 4.86319 19.1374 3.69431 18.0169 3.32306L10.6031 0.864938C10.1404 0.711563 9.7245 0.712313 9.40425 0.863438C9.05775 0.957563 8.66175 1.10681 8.256 1.29581C7.70137 1.55419 7.01737 1.94681 6.72712 2.28844C6.69448 2.31644 6.66284 2.34558 6.63225 2.37581L1.66012 7.34906C0.887249 8.12156 0.543374 9.59156 0.877499 10.6959L3.03825 17.8524C3.07762 17.9833 3.12637 18.1067 3.18337 18.2196C3.35737 18.7491 4.07062 19.4912 4.28962 19.7102C4.50937 19.9296 5.25262 20.6447 5.78212 20.8183C5.89462 20.8742 6.018 20.9229 6.14812 20.9623L13.3042 23.1231C13.5817 23.2074 13.8866 23.2498 14.211 23.2498C15.1406 23.2498 16.0984 22.8928 16.6504 22.3408L21.6236 17.3672C21.6551 17.3357 21.6836 17.3042 21.7114 17.2723C22.0534 16.9809 22.446 16.2969 22.7036 15.7442C22.8937 15.3366 23.043 14.9394 23.1371 14.5926C23.2886 14.2704 23.2879 13.8579 23.1345 13.3959ZM4.31587 18.6624C4.04325 18.3309 3.89887 18.0853 3.87 17.9833L3.84225 17.9143C3.79757 17.8274 3.76116 17.7365 3.7335 17.6428L1.572 10.4859C1.31737 9.64406 1.59262 8.44256 2.17312 7.86244L7.14637 2.88881C7.17187 2.86294 7.19887 2.84044 7.22475 2.81794L7.27275 2.76769C7.3575 2.66044 7.58737 2.48569 7.91737 2.29144C8.232 2.39081 8.49975 2.68781 8.64487 3.17006L10.8056 10.3269C11.0996 11.2993 10.7899 12.6366 10.1137 13.3127L5.14125 18.2859C4.8705 18.5563 4.58325 18.6737 4.31587 18.6624ZM21.231 16.7274L21.1796 16.7773C21.1575 16.8028 21.1357 16.8287 21.1099 16.8542L16.1374 21.8278C15.7211 22.2441 14.9467 22.5234 14.2114 22.5234C13.9756 22.526 13.7403 22.4939 13.5139 22.4282L6.35775 20.2674C6.26407 20.2395 6.17318 20.203 6.08625 20.1583L6.01687 20.1313C5.91525 20.1028 5.66962 19.9577 5.33812 19.6851C5.3265 19.4173 5.44312 19.1304 5.71425 18.8593L10.6864 13.8864C11.3629 13.2099 12.6994 12.9002 13.6721 13.1942L20.8282 15.3553C21.3112 15.5012 21.6082 15.7693 21.7072 16.0839C21.5138 16.4132 21.3382 16.6423 21.231 16.7274ZM22.4737 14.2974L22.4452 14.3724C22.41 14.5063 22.3616 14.6548 22.3057 14.8086C22.1044 14.8472 21.8569 14.8262 21.57 14.7309L14.1566 12.2728C13.1486 11.9391 12.0604 10.8508 11.7274 9.84319L9.26925 2.42981C9.17437 2.14294 9.153 1.89581 9.19162 1.69406C9.34462 1.63894 9.492 1.59056 9.6255 1.55531L9.70162 1.52569C9.7665 1.49194 9.85012 1.47469 9.95025 1.47469C10.0747 1.47469 10.2176 1.50131 10.3755 1.55344L17.7889 4.01156C18.6844 4.30856 19.6909 5.31581 19.9875 6.21094L22.446 13.6239C22.539 13.9067 22.5495 14.1516 22.4737 14.2974Z" fill="white"/>
</g>
<defs>
<clipPath id="clip0_261_6021">
<rect width="24" height="24" fill="white"/>
</clipPath>
</defs>
</svg>
