<svg width="14" height="15" viewBox="0 0 14 15" fill="none" xmlns="http://www.w3.org/2000/svg">
<g id="radix-icons:cross-circled">
<path id="Vector" fill-rule="evenodd" clip-rule="evenodd" d="M0.818359 7.49983C0.818359 5.8604 1.46962 4.28812 2.62887 3.12887C3.78812 1.96962 5.3604 1.31836 6.99983 1.31836C8.63925 1.31836 10.2115 1.96962 11.3708 3.12887C12.53 4.28812 13.1813 5.8604 13.1813 7.49983C13.1813 9.13925 12.53 10.7115 11.3708 11.8708C10.2115 13.03 8.63925 13.6813 6.99983 13.6813C5.3604 13.6813 3.78812 13.03 2.62887 11.8708C1.46962 10.7115 0.818359 9.13925 0.818359 7.49983ZM6.99983 2.20503C5.59556 2.20503 4.24881 2.76287 3.25584 3.75584C2.26287 4.74881 1.70503 6.09556 1.70503 7.49983C1.70503 8.9041 2.26287 10.2508 3.25584 11.2438C4.24881 12.2368 5.59556 12.7946 6.99983 12.7946C8.4041 12.7946 9.75085 12.2368 10.7438 11.2438C11.7368 10.2508 12.2946 8.9041 12.2946 7.49983C12.2946 6.09556 11.7368 4.74881 10.7438 3.75584C9.75085 2.76287 8.4041 2.20503 6.99983 2.20503ZM9.19689 5.30369C9.28438 5.39121 9.33353 5.50988 9.33353 5.63363C9.33353 5.75737 9.28438 5.87605 9.19689 5.96356L7.65969 7.49983L9.19689 9.03609C9.28452 9.12372 9.33375 9.24257 9.33375 9.36649C9.33375 9.49042 9.28452 9.60927 9.19689 9.69689C9.10927 9.78452 8.99042 9.83375 8.86649 9.83375C8.74257 9.83375 8.62372 9.78452 8.53609 9.69689L6.99983 8.15969L5.46356 9.69689C5.42017 9.74028 5.36866 9.7747 5.31197 9.79818C5.25528 9.82166 5.19452 9.83375 5.13316 9.83375C5.0718 9.83375 5.01104 9.82166 4.95435 9.79818C4.89766 9.7747 4.84615 9.74028 4.80276 9.69689C4.75937 9.65351 4.72495 9.602 4.70147 9.54531C4.67799 9.48862 4.6659 9.42785 4.6659 9.36649C4.6659 9.30513 4.67799 9.24437 4.70147 9.18768C4.72495 9.13099 4.75937 9.07948 4.80276 9.03609L6.33996 7.49983L4.80276 5.96356C4.71513 5.87593 4.6659 5.75708 4.6659 5.63316C4.6659 5.50924 4.71513 5.39039 4.80276 5.30276C4.89039 5.21513 5.00924 5.1659 5.13316 5.1659C5.25708 5.1659 5.37593 5.21513 5.46356 5.30276L6.99983 6.83996L8.53609 5.30276C8.57944 5.2593 8.63094 5.22482 8.68764 5.20129C8.74433 5.17777 8.80511 5.16566 8.86649 5.16566C8.92788 5.16566 8.98866 5.17777 9.04535 5.20129C9.10205 5.22482 9.15354 5.26023 9.19689 5.30369Z" fill="#999A9B"/>
</g>
</svg>
